<svg xmlns="http://www.w3.org/2000/svg" version="1.1" xmlns:xlink="http://www.w3.org/1999/xlink" xmlns:svgjs="http://svgjs.dev/svgjs" viewBox="0 0 5.275452271951649 1.688113971077739"><g transform="matrix(1,0,0,1,0.24055698553886984,0.6201369855388696)"><rect width="5.275452271951649" height="5.275452271951649" x="-0.24055698553886984" y="-2.4138061359758245" fill="#ffffff"></rect><g><path d=" M 0.21894400000000003 0.4478399999999999 Q 0.16234200000000001 0.4478399999999999 0.12129000000000001 0.4291799999999999 Q 0.080238 0.4105199999999999 0.057224000000000004 0.3728889999999999 Q 0.034210000000000004 0.3352579999999999 0.032344000000000005 0.2780339999999999 Q 0.031722 0.2512879999999999 0.031722 0.2248529999999999 Q 0.031722 0.19841799999999987 0.032344000000000005 0.17104999999999987 Q 0.034210000000000004 0.1150699999999999 0.057535 0.07681699999999986 Q 0.08086 0.038563999999999876 0.12222300000000001 0.019281999999999855 Q 0.163586 -1.1102230246251565e-16 0.21894400000000003 -1.1102230246251565e-16 Q 0.27368000000000003 -1.1102230246251565e-16 0.315043 0.019281999999999855 Q 0.356406 0.038563999999999876 0.38004200000000005 0.07681699999999986 Q 0.40367800000000004 0.1150699999999999 0.404922 0.17104999999999987 Q 0.406166 0.19841799999999987 0.406166 0.2248529999999999 Q 0.406166 0.2512879999999999 0.404922 0.2780339999999999 Q 0.403056 0.3352579999999999 0.38004200000000005 0.3728889999999999 Q 0.357028 0.4105199999999999 0.31597600000000003 0.4291799999999999 Q 0.274924 0.4478399999999999 0.21894400000000003 0.4478399999999999 M 0.21894400000000003 0.3676019999999999 Q 0.25502 0.3676019999999999 0.278345 0.3455209999999999 Q 0.30167000000000005 0.3234399999999999 0.302914 0.2749239999999999 Q 0.30415800000000004 0.2475559999999999 0.30415800000000004 0.2236089999999999 Q 0.30415800000000004 0.1996619999999999 0.302914 0.1729159999999999 Q 0.302292 0.14057199999999986 0.291096 0.12004599999999988 Q 0.27990000000000004 0.09951999999999989 0.26155100000000003 0.08987899999999988 Q 0.24320200000000003 0.08023799999999986 0.21894400000000003 0.08023799999999986 Q 0.19468600000000003 0.08023799999999986 0.17602600000000002 0.08987899999999988 Q 0.157366 0.09951999999999989 0.146481 0.12004599999999988 Q 0.13559600000000002 0.14057199999999986 0.134352 0.1729159999999999 Q 0.13373000000000002 0.1996619999999999 0.13373000000000002 0.2236089999999999 Q 0.13373000000000002 0.2475559999999999 0.134352 0.2749239999999999 Q 0.136218 0.3234399999999999 0.159232 0.3455209999999999 Q 0.18224600000000002 0.3676019999999999 0.21894400000000003 0.3676019999999999 M 0.6344953604296875 0.4416199999999999 Q 0.6276533604296876 0.4416199999999999 0.6232993604296875 0.4372659999999999 Q 0.6189453604296875 0.4329119999999999 0.6189453604296875 0.4260699999999999 L 0.6189453604296875 0.09267799999999987 L 0.5057413604296875 0.09267799999999987 Q 0.49952136042968753 0.09267799999999987 0.4951673604296875 0.08832399999999985 Q 0.4908133604296875 0.08396999999999988 0.4908133604296875 0.07774999999999987 L 0.4908133604296875 0.021769999999999845 Q 0.4908133604296875 0.014927999999999886 0.4951673604296875 0.010573999999999861 Q 0.49952136042968753 0.006219999999999892 0.5057413604296875 0.006219999999999892 L 0.8316693604296875 0.006219999999999892 Q 0.8385113604296875 0.006219999999999892 0.8428653604296875 0.010573999999999861 Q 0.8472193604296876 0.014927999999999886 0.8472193604296876 0.021769999999999845 L 0.8472193604296876 0.07774999999999987 Q 0.8472193604296876 0.08396999999999988 0.8428653604296875 0.08832399999999985 Q 0.8385113604296875 0.09267799999999987 0.8316693604296875 0.09267799999999987 L 0.7190873604296875 0.09267799999999987 L 0.7190873604296875 0.4260699999999999 Q 0.7190873604296875 0.4329119999999999 0.7147333604296875 0.4372659999999999 Q 0.7103793604296875 0.4416199999999999 0.7035373604296875 0.4416199999999999 L 0.6344953604296875 0.4416199999999999 M 1.1321665138281252 0.4478399999999999 Q 1.077430513828125 0.4478399999999999 1.036378513828125 0.4294909999999999 Q 0.9953265138281251 0.4111419999999999 0.972934513828125 0.3728889999999999 Q 0.950542513828125 0.3346359999999999 0.950542513828125 0.2755459999999999 L 0.950542513828125 0.021769999999999845 Q 0.950542513828125 0.014927999999999886 0.954896513828125 0.010573999999999861 Q 0.9592505138281251 0.006219999999999892 0.966092513828125 0.006219999999999892 L 1.0338905138281251 0.006219999999999892 Q 1.0407325138281251 0.006219999999999892 1.0450865138281251 0.010573999999999861 Q 1.049440513828125 0.014927999999999886 1.049440513828125 0.021769999999999845 L 1.049440513828125 0.2749239999999999 Q 1.049440513828125 0.3209519999999999 1.0712105138281252 0.34334399999999987 Q 1.092980513828125 0.3657359999999999 1.1321665138281252 0.3657359999999999 Q 1.170730513828125 0.3657359999999999 1.192500513828125 0.34334399999999987 Q 1.2142705138281251 0.3209519999999999 1.2142705138281251 0.2749239999999999 L 1.2142705138281251 0.021769999999999845 Q 1.2142705138281251 0.014927999999999886 1.218935513828125 0.010573999999999861 Q 1.2236005138281252 0.006219999999999892 1.229820513828125 0.006219999999999892 L 1.298240513828125 0.006219999999999892 Q 1.3044605138281251 0.006219999999999892 1.308814513828125 0.010573999999999861 Q 1.313168513828125 0.014927999999999886 1.313168513828125 0.021769999999999845 L 1.313168513828125 0.2755459999999999 Q 1.313168513828125 0.3346359999999999 1.290776513828125 0.3728889999999999 Q 1.2683845138281251 0.4111419999999999 1.2279545138281251 0.4294909999999999 Q 1.1875245138281252 0.4478399999999999 1.1321665138281252 0.4478399999999999" fill="#0e1425" fill-rule="nonzero"></path></g><g><path d=" M 2.5567573474364096 0.4416199999999999 Q 2.54680534743641 0.4416199999999999 2.5408963474364095 0.4360219999999999 Q 2.5349873474364095 0.4304239999999999 2.5337433474364097 0.4223379999999999 L 2.4628353474364095 0.02363599999999988 Q 2.4622133474364096 0.022391999999999856 2.4622133474364096 0.02114799999999989 Q 2.4622133474364096 0.019903999999999866 2.4622133474364096 0.019281999999999855 Q 2.4622133474364096 0.014305999999999874 2.4659453474364095 0.010262999999999856 Q 2.4696773474364098 0.006219999999999892 2.4752753474364098 0.006219999999999892 L 2.5405853474364095 0.006219999999999892 Q 2.5567573474364096 0.006219999999999892 2.5586233474364097 0.019281999999999855 L 2.60527334743641 0.28238799999999986 L 2.6556553474364097 0.11880199999999985 Q 2.6575213474364094 0.11382599999999987 2.6618753474364096 0.10822799999999988 Q 2.66622934743641 0.10262999999999989 2.6761813474364096 0.10262999999999989 L 2.7153673474364095 0.10262999999999989 Q 2.7253193474364097 0.10262999999999989 2.7296733474364094 0.10822799999999988 Q 2.7340273474364096 0.11382599999999987 2.73527134743641 0.11880199999999985 L 2.7862753474364097 0.28176599999999985 L 2.83230334743641 0.019281999999999855 Q 2.8341693474364096 0.006219999999999892 2.8509633474364096 0.006219999999999892 L 2.9162733474364098 0.006219999999999892 Q 2.9218713474364097 0.006219999999999892 2.9256033474364096 0.010262999999999856 Q 2.92933534743641 0.014305999999999874 2.92933534743641 0.019281999999999855 Q 2.92933534743641 0.019903999999999866 2.92933534743641 0.02114799999999989 Q 2.92933534743641 0.022391999999999856 2.9287133474364095 0.02363599999999988 L 2.85780534743641 0.4223379999999999 Q 2.8565613474364095 0.4304239999999999 2.8506523474364096 0.4360219999999999 Q 2.8447433474364097 0.4416199999999999 2.8347913474364095 0.4416199999999999 L 2.7844093474364096 0.4416199999999999 Q 2.77445734743641 0.4416199999999999 2.7691703474364098 0.4363329999999999 Q 2.7638833474364097 0.43104599999999993 2.7620173474364096 0.4254479999999999 L 2.6954633474364096 0.2326279999999999 L 2.6295313474364095 0.4254479999999999 Q 2.62766534743641 0.43104599999999993 2.6223783474364097 0.4363329999999999 Q 2.6170913474364097 0.4416199999999999 2.6065173474364096 0.4416199999999999 L 2.5567573474364096 0.4416199999999999 M 3.2130372859910974 0.4478399999999999 Q 3.1564352859910976 0.4478399999999999 3.1153832859910975 0.4291799999999999 Q 3.0743312859910974 0.4105199999999999 3.0513172859910975 0.3728889999999999 Q 3.028303285991097 0.3352579999999999 3.0264372859910975 0.2780339999999999 Q 3.025815285991097 0.2512879999999999 3.025815285991097 0.2248529999999999 Q 3.025815285991097 0.19841799999999987 3.0264372859910975 0.17104999999999987 Q 3.028303285991097 0.1150699999999999 3.0516282859910975 0.07681699999999986 Q 3.0749532859910973 0.038563999999999876 3.1163162859910973 0.019281999999999855 Q 3.1576792859910974 -1.1102230246251565e-16 3.2130372859910974 -1.1102230246251565e-16 Q 3.2677732859910975 -1.1102230246251565e-16 3.3091362859910975 0.019281999999999855 Q 3.3504992859910976 0.038563999999999876 3.3741352859910974 0.07681699999999986 Q 3.3977712859910976 0.1150699999999999 3.3990152859910974 0.17104999999999987 Q 3.4002592859910976 0.19841799999999987 3.4002592859910976 0.2248529999999999 Q 3.4002592859910976 0.2512879999999999 3.3990152859910974 0.2780339999999999 Q 3.3971492859910972 0.3352579999999999 3.3741352859910974 0.3728889999999999 Q 3.3511212859910975 0.4105199999999999 3.3100692859910974 0.4291799999999999 Q 3.2690172859910973 0.4478399999999999 3.2130372859910974 0.4478399999999999 M 3.2130372859910974 0.3676019999999999 Q 3.2491132859910974 0.3676019999999999 3.272438285991097 0.3455209999999999 Q 3.2957632859910975 0.3234399999999999 3.2970072859910973 0.2749239999999999 Q 3.2982512859910975 0.2475559999999999 3.2982512859910975 0.2236089999999999 Q 3.2982512859910975 0.1996619999999999 3.2970072859910973 0.1729159999999999 Q 3.2963852859910974 0.14057199999999986 3.2851892859910974 0.12004599999999988 Q 3.2739932859910974 0.09951999999999989 3.2556442859910972 0.08987899999999988 Q 3.2372952859910975 0.08023799999999986 3.2130372859910974 0.08023799999999986 Q 3.1887792859910973 0.08023799999999986 3.170119285991097 0.08987899999999988 Q 3.1514592859910975 0.09951999999999989 3.1405742859910974 0.12004599999999988 Q 3.1296892859910974 0.14057199999999986 3.128445285991097 0.1729159999999999 Q 3.1278232859910973 0.1996619999999999 3.1278232859910973 0.2236089999999999 Q 3.1278232859910973 0.2475559999999999 3.128445285991097 0.2749239999999999 Q 3.1303112859910973 0.3234399999999999 3.153325285991097 0.3455209999999999 Q 3.1763392859910975 0.3676019999999999 3.2130372859910974 0.3676019999999999 M 3.5402795282567223 0.4416199999999999 Q 3.5334375282567225 0.4416199999999999 3.5290835282567223 0.4372659999999999 Q 3.5247295282567226 0.4329119999999999 3.5247295282567226 0.4260699999999999 L 3.5247295282567226 0.021769999999999845 Q 3.5247295282567226 0.014927999999999886 3.5290835282567223 0.010573999999999861 Q 3.5334375282567225 0.006219999999999892 3.5402795282567223 0.006219999999999892 L 3.7051095282567226 0.006219999999999892 Q 3.7828595282567226 0.006219999999999892 3.8276435282567225 0.041984999999999884 Q 3.8724275282567224 0.07774999999999987 3.8724275282567224 0.1449259999999999 Q 3.8724275282567224 0.1903319999999999 3.8506575282567224 0.2208099999999999 Q 3.8288875282567223 0.2512879999999999 3.7921895282567224 0.2662159999999999 L 3.8798915282567226 0.4217159999999999 Q 3.8817575282567223 0.4254479999999999 3.8817575282567223 0.4285579999999999 Q 3.8817575282567223 0.4335339999999999 3.8780255282567224 0.4375769999999999 Q 3.8742935282567226 0.4416199999999999 3.8686955282567226 0.4416199999999999 L 3.7996535282567225 0.4416199999999999 Q 3.7884575282567226 0.4416199999999999 3.7828595282567226 0.4357109999999999 Q 3.7772615282567226 0.4298019999999999 3.7747735282567225 0.4248259999999999 L 3.6988895282567222 0.28238799999999986 L 3.6236275282567223 0.28238799999999986 L 3.6236275282567223 0.4260699999999999 Q 3.6236275282567223 0.4329119999999999 3.6192735282567225 0.4372659999999999 Q 3.6149195282567224 0.4416199999999999 3.6080775282567226 0.4416199999999999 L 3.5402795282567223 0.4416199999999999 M 3.6236275282567223 0.20339399999999988 L 3.7032435282567224 0.20339399999999988 Q 3.7374535282567223 0.20339399999999988 3.7539365282567223 0.1878439999999999 Q 3.7704195282567223 0.1722939999999999 3.7704195282567223 0.14430399999999988 Q 3.7704195282567223 0.11631399999999986 3.7542475282567223 0.1001419999999999 Q 3.738075528256722 0.08396999999999988 3.7032435282567224 0.08396999999999988 L 3.6236275282567223 0.08396999999999988 L 3.6236275282567223 0.20339399999999988 M 4.011828200209847 0.4416199999999999 Q 4.0049862002098475 0.4416199999999999 4.000632200209847 0.4372659999999999 Q 3.9962782002098476 0.4329119999999999 3.9962782002098476 0.4260699999999999 L 3.9962782002098476 0.021769999999999845 Q 3.9962782002098476 0.014927999999999886 4.000632200209847 0.010573999999999861 Q 4.0049862002098475 0.006219999999999892 4.011828200209847 0.006219999999999892 L 4.077760200209847 0.006219999999999892 Q 4.084602200209847 0.006219999999999892 4.088956200209847 0.010573999999999861 Q 4.093310200209848 0.014927999999999886 4.093310200209848 0.021769999999999845 L 4.093310200209848 0.1635859999999999 L 4.2214422002098475 0.018037999999999887 Q 4.223930200209847 0.014305999999999874 4.229839200209847 0.010262999999999856 Q 4.235748200209848 0.006219999999999892 4.245700200209847 0.006219999999999892 L 4.320962200209848 0.006219999999999892 Q 4.3265602002098476 0.006219999999999892 4.330292200209848 0.010262999999999856 Q 4.334024200209847 0.014305999999999874 4.334024200209847 0.019281999999999855 Q 4.334024200209847 0.02363599999999988 4.331536200209848 0.02674599999999988 L 4.1716822002098475 0.2145899999999999 L 4.3433542002098475 0.4210939999999999 Q 4.345842200209847 0.4235819999999999 4.345842200209847 0.4285579999999999 Q 4.345842200209847 0.4335339999999999 4.342110200209848 0.4375769999999999 Q 4.338378200209847 0.4416199999999999 4.332780200209847 0.4416199999999999 L 4.2550302002098475 0.4416199999999999 Q 4.2438342002098475 0.4416199999999999 4.2382362002098475 0.4366439999999999 Q 4.2326382002098475 0.4316679999999999 4.230772200209848 0.4298019999999999 L 4.093310200209848 0.27056999999999987 L 4.093310200209848 0.4260699999999999 Q 4.093310200209848 0.4329119999999999 4.088956200209847 0.4372659999999999 Q 4.084602200209847 0.4416199999999999 4.077760200209847 0.4416199999999999 L 4.011828200209847 0.4416199999999999 M 4.591580271577035 0.4478399999999999 Q 4.531868271577035 0.4478399999999999 4.491749271577035 0.4304239999999999 Q 4.451630271577034 0.4130079999999999 4.431104271577035 0.3850179999999999 Q 4.410578271577035 0.3570279999999999 4.409334271577035 0.3253059999999999 Q 4.409334271577035 0.3203299999999999 4.413066271577034 0.3162869999999999 Q 4.416798271577035 0.31224399999999985 4.422396271577035 0.31224399999999985 L 4.488950271577035 0.31224399999999985 Q 4.497036271577035 0.31224399999999985 4.501390271577034 0.31566499999999986 Q 4.505744271577035 0.31908599999999987 4.509476271577035 0.3240619999999999 Q 4.513830271577035 0.3346359999999999 4.523471271577034 0.3445879999999999 Q 4.533112271577035 0.3545399999999999 4.549906271577035 0.3610709999999999 Q 4.566700271577035 0.3676019999999999 4.591580271577035 0.3676019999999999 Q 4.632010271577035 0.3676019999999999 4.652225271577034 0.3545399999999999 Q 4.672440271577035 0.3414779999999999 4.672440271577035 0.31908599999999987 Q 4.672440271577035 0.3029139999999999 4.6615552715770345 0.2929619999999999 Q 4.6506702715770345 0.2830099999999999 4.627345271577035 0.2749239999999999 Q 4.604020271577035 0.2668379999999999 4.565456271577035 0.25750799999999985 Q 4.518806271577034 0.2475559999999999 4.486151271577035 0.23169499999999987 Q 4.453496271577035 0.2158339999999999 4.437013271577035 0.1906429999999999 Q 4.420530271577035 0.16545199999999988 4.420530271577035 0.12813199999999986 Q 4.420530271577035 0.09081199999999989 4.441056271577034 0.06188899999999986 Q 4.461582271577035 0.032965999999999884 4.498902271577035 0.01648299999999986 Q 4.536222271577035 -1.1102230246251565e-16 4.587848271577035 -1.1102230246251565e-16 Q 4.629522271577034 -1.1102230246251565e-16 4.6615552715770345 0.011195999999999873 Q 4.693588271577035 0.022391999999999856 4.715047271577035 0.040429999999999855 Q 4.736506271577035 0.05846799999999985 4.747702271577035 0.0789939999999999 Q 4.758898271577035 0.09951999999999989 4.759520271577035 0.11880199999999985 Q 4.759520271577035 0.12377799999999989 4.7557882715770345 0.12782099999999985 Q 4.752056271577034 0.13186399999999987 4.746458271577035 0.13186399999999987 L 4.676794271577035 0.13186399999999987 Q 4.670574271577035 0.13186399999999987 4.665598271577035 0.12937599999999988 Q 4.660622271577035 0.1268879999999999 4.657512271577034 0.12066799999999989 Q 4.653780271577035 0.10449599999999987 4.635431271577034 0.09236699999999987 Q 4.6170822715770345 0.08023799999999986 4.587848271577035 0.08023799999999986 Q 4.557370271577034 0.08023799999999986 4.5396432715770345 0.09143399999999985 Q 4.521916271577035 0.10262999999999989 4.521916271577035 0.12564399999999987 Q 4.521916271577035 0.14057199999999986 4.530935271577035 0.15083499999999989 Q 4.5399542715770345 0.16109799999999985 4.561413271577035 0.16887299999999988 Q 4.582872271577035 0.17664799999999986 4.618326271577034 0.18597799999999987 Q 4.6730622715770345 0.19717399999999988 4.707272271577034 0.21272399999999989 Q 4.741482271577035 0.2282739999999999 4.757654271577035 0.2528429999999999 Q 4.773826271577034 0.2774119999999999 4.773826271577034 0.3147319999999999 Q 4.773826271577034 0.3564059999999999 4.7505012715770345 0.3862619999999999 Q 4.727176271577035 0.4161179999999999 4.686435271577035 0.4319789999999999 Q 4.645694271577034 0.4478399999999999 4.591580271577035 0.4478399999999999" fill="#0e1425" fill-rule="nonzero"></path></g><g></g><g clip-path="url(#SvgjsClipPath1003)"><g clip-path="url(#ae6608863-0c27-405c-b6d3-0f94a0328f1a63737a03-a9a9-4f19-b837-91f01d26b5d4)"><path d=" M 1.7383305980294332 0.2927473056773255 C 1.7383305980294332 0.28686548779620896 1.7335624425355496 0.28209733230232553 1.7276806246544332 0.28209733230232553 L 1.3794787819829217 0.28209733230232553 C 1.3754911632446474 0.2818104831872929 1.3716773859111593 0.2837752982107616 1.36959612773347 0.2871887641933713 C 1.3675148695557808 0.2906022301759809 1.3675148695557808 0.29489238117867006 1.36959612773347 0.2983058471612798 C 1.3716773859111593 0.3017193131438894 1.3754911632446474 0.30368412816735807 1.3794787819829217 0.30339727905232544 L 1.7276806246544332 0.30339727905232544 C 1.7335697572183866 0.30339727905232544 1.7383305980294332 0.298636438241279 1.7383305980294332 0.2927473056773255" fill="#bd2949" transform="matrix(1,0,0,1,0,0)" fill-rule="nonzero"></path></g><g clip-path="url(#ae6608863-0c27-405c-b6d3-0f94a0328f1a63737a03-a9a9-4f19-b837-91f01d26b5d4)"><path d=" M 2.4631617316835026 0.28209733230232553 L 2.1149598890119914 0.28209733230232553 C 2.1090704718829665 0.28209733230232553 2.1042961559814684 0.2868716482038239 2.1042961559814684 0.2927610653328488 C 2.1042961559814684 0.2986504824618736 2.1090704718829665 0.30342479836337194 2.1149598890119914 0.30342479836337194 L 2.4631617316835026 0.30342479836337194 C 2.4688408029848867 0.3031362082041858 2.473297331470256 0.29844746446816967 2.473297331470256 0.2927610653328488 C 2.473297331470256 0.2870746661975279 2.4688408029848867 0.2823859224615117 2.4631617316835026 0.28209733230232553" fill="#bd2949" transform="matrix(1,0,0,1,0,0)" fill-rule="nonzero"></path></g><g clip-path="url(#ae6608863-0c27-405c-b6d3-0f94a0328f1a63737a03-a9a9-4f19-b837-91f01d26b5d4)"><path d=" M 1.9908477961922237 0.2803085770843022 C 2.0231554673608283 0.24268967888372078 2.043519757535247 0.217041680988372 2.0420612340497817 0.21379440228488372 L 2.052656168802689 0.20119055782558132 L 2.054169730910247 0.20066769091569764 C 2.055683293017805 0.20014482400581396 2.053949576421875 0.19505375146220932 2.053949576421875 0.19505375146220932 L 2.0438224699567584 0.18478904844186045 L 2.0432445644247816 0.18421114290988366 L 2.0838630675294327 0.14323488876162788 C 2.0853597430058777 0.14204398281029335 2.0870685786703373 0.14114754442893734 2.0888991014509446 0.14059303490116276 L 2.240392908761991 -0.011863948296511606 L 2.1060711515439676 0.14752790128488363 C 2.123903665102107 0.1609573250755813 2.162788451610828 0.19087081618313945 2.162788451610828 0.19087081618313945 C 2.1907755909451305 0.20864829111918598 2.20742477412827 0.18539447328488373 2.20742477412827 0.18539447328488373 C 2.2154604129538513 0.18129409593895335 2.283873420215479 0.10302917532267447 2.283873420215479 0.10302917532267447 C 2.338003905043968 0.03885414196220932 2.3469201618230375 0.0038495783110465975 2.3469201618230375 0.0038495783110465975 C 2.365165465046875 -0.04609797123837195 2.346947681134084 -0.11222687568313933 2.346947681134084 -0.11222687568313933 C 2.343232574142805 -0.13754464184593007 2.3297205924189677 -0.14156246125872077 2.3297205924189677 -0.14156246125872077 C 2.2444107281747816 -0.15777133546511612 2.2046453237125725 -0.14745159382267428 2.2046453237125725 -0.14745159382267428 C 2.1494140664422234 -0.13437992107558125 2.0308058358317584 -0.010295347566860347 2.0308058358317584 -0.010295347566860347 C 2.0005070743695494 0.02165457255813963 2.009093099416061 0.03830375574127909 2.0171837768637353 0.04768784080813959 L 2.0666634981253633 0.1051206429622093 C 2.0759925445701306 0.11717410120058142 2.0688375236980376 0.12620043522383723 2.0688375236980376 0.12620043522383723 L 2.025659724666061 0.16632359072965103 L 2.016798506509084 0.15735229532848832 C 2.0120927043201307 0.15333447591569765 2.00744194075327 0.15404997800290693 2.00744194075327 0.15404997800290693 L 1.9929943024538517 0.1669014962616278 C 1.9900222168608281 0.16574568519767446 1.9687497894218748 0.18396346911046507 1.937020023785247 0.21346417055232553 L 1.7602910082445493 -0.005919777110465041 L 1.7608964330875727 -0.006360086087209227 L 1.7614468193085029 -0.02116547543023245 L 1.7280934143201307 -0.0729843381308139 C 1.7077016048346656 -0.11437338194476732 1.7495309576253635 -0.11420826607848827 1.7656022352765262 -0.11718035167151153 C 1.781893667416061 -0.12015243726453473 1.8844031010643167 -0.0962656752761627 1.8844031010643167 -0.0962656752761627 L 1.9135460514625726 -0.09387149521511617 L 1.9172061198317585 -0.10009085951162783 L 1.9257371062561772 -0.10320054165988363 L 1.926259973166061 -0.1135202833023255 L 1.842518709651526 -0.14500237513953476 C 1.8283737837736191 -0.1510291042587208 1.8152195530933866 -0.15573490644767432 1.8028358631224564 -0.1594775327499999 C 1.7090775703869912 -0.20202238762790675 1.6679362003724565 -0.16960463921511607 1.6679362003724565 -0.16960463921511607 L 1.5499333946050144 -0.07807541067441848 C 1.5499333946050144 -0.07807541067441848 1.5474841759218751 -0.04444681257558131 1.5276152333462936 -0.0212205140523255 C 1.5077187714596658 0.001978265159883752 1.4835017777387356 -0.0017368418313953304 1.4835017777387356 -0.0017368418313953304 L 1.4487999265090843 0.025424718171511707 L 1.4464057464480378 0.04559637316860471 C 1.4533956514538517 0.07347343525872096 1.4865013826428053 0.09521369098546517 1.4865013826428053 0.09521369098546517 C 1.4972339139509447 0.10335940705523261 1.513387749535247 0.10435010225290697 1.513387749535247 0.10435010225290697 C 1.5174330882590843 0.10575358711627902 1.5504012228928052 0.07047383035465116 1.5504012228928052 0.07047383035465116 C 1.5491903732067587 0.04757776356395349 1.5744806200585029 0.021682091869186126 1.5744806200585029 0.021682091869186126 C 1.6074212353811772 -0.0045713308691859855 1.6296843580178053 0.017994504188953542 1.6296843580178053 0.017994504188953542 L 1.6711834790759448 0.05459518788081402 L 1.6797419848114097 0.05599867274418607 L 1.6809528344974565 0.055063016168604706 C 1.681585778651526 0.05635642378779071 1.6824113579829214 0.057787427962209315 1.6830993407590842 0.05916339351453487 C 1.683897400779433 0.05864052660465119 1.6847780187329215 0.05820021762790695 1.6856035980643167 0.057704870029069766 C 1.6860989456631539 0.061915324619185974 1.7654096000992006 0.16555305002034876 1.8596082018114097 0.28735352071220915 C 1.7286713198521075 0.4144652184360463 1.548777583541061 0.5965054610087206 1.548777583541061 0.5965054610087206 C 1.5267070960817588 0.6194015277994185 1.542145429578852 0.6405363586831392 1.565069015680596 0.6626068461424415 C 1.5879650824712936 0.6847048529127904 1.6096502995759447 0.6994001650116275 1.6317207870352473 0.6764765789098834 C 1.6317207870352473 0.6764765789098834 1.7973595202242005 0.4982890398837206 1.9181692957183865 0.36297658746802314 C 2.001293862667705 0.47011803992928375 2.0845949303093194 0.5771224396693513 2.1680721593332866 0.6839893508275421 C 2.187886063285247 0.7088668080116276 2.210864688009084 0.6962904828633718 2.2357421451951307 0.6764765789098834 C 2.2606471216922235 0.6566626749563949 2.278039326273619 0.6370689254912787 2.258197903009084 0.6121914683052323 Z M 2.293477659770712 0.036047172235465164 C 2.2940830846137352 0.03541422808139544 2.3537449509625725 -0.023779809979651012 2.321079528750363 -0.12876598162209285 C 2.3208829590261906 -0.129431949716108 2.321213392192521 -0.13014002078681638 2.321850069459665 -0.1304171402848836 C 2.3224970422431412 -0.13066607101298142 2.3232281706227362 -0.13039484596893805 2.323556266744549 -0.1297841961308138 C 2.32402409503234 -0.1288210202441859 2.371109636232921 -0.032998779180232474 2.3047330579887353 0.05198085333139546 C 2.3044827786474533 0.05228737552229945 2.304110489947778 0.05246848894376338 2.303714843480014 0.05247620093023264 L 2.3036873241689677 0.05247620093023264 C 2.3032953141741674 0.052479075291586685 2.3029222790497528 0.052307680774963616 2.302669109660247 0.05200837264244201 L 2.289047050692224 0.0413859185784885 C 2.2886067417154794 0.04086305166860482 2.2930098314829213 0.036542519834302456 2.293477659770712 0.03604717223546522 M 1.8716066214276887 0.31946855670348834 L 1.5566756258114098 0.6343720330087204 L 1.5484198324974563 0.6157964980523252 L 1.549052776651526 0.615136034587209 L 1.8610942446079215 0.302241467988372 L 1.8724046814480375 0.31867049668313946 Z M 1.9958563108026888 0.1737813240232557 L 1.9967094094451308 0.17446930679941858 L 2.021586866631177 0.19356770866569767 L 2.009093099416061 0.19923668674127898 L 1.9969295639335027 0.19056810376162786 L 1.9532564173026887 0.23242497586337202 L 1.9486606923579215 0.22791180885174417 L 1.9419734997736189 0.22141725144476737 L 1.9428265984160609 0.2206742300465116 Z M 2.2431998784887353 0.6560022114912787 L 2.2417963936253633 0.6542134562732553 L 1.9688048280439678 0.30573642049127897 L 1.913683648017805 0.23536954214534883 L 1.7850308688753633 0.07116181313081404 L 1.7697576512445494 0.029772769316860515 L 1.7748762430992004 0.036102210857558215 L 1.9260122993666422 0.2237563928837209 L 1.9808858055933865 0.2918942070348836 L 2.253822332552689 0.6307670032616275 Z" fill="#bd2949" transform="matrix(1,0,0,1,0,0)" fill-rule="nonzero"></path></g><g clip-path="url(#SvgjsClipPath100063737a03-a9a9-4f19-b837-91f01d26b5d4)"><path d=" M 1.8185780334829216 0.7527874418604645 L 1.8465651728172239 0.7527874418604645 L 1.8465651728172239 0.8274198134186042 L 1.8967328768550145 0.8274198134186042 L 1.8967328768550145 0.7776648990465111 L 1.9314072087736192 0.7776648990465111 L 1.9314072087736192 0.8274198134186042 L 1.9815749128114097 0.8274198134186042 L 1.9815749128114097 0.7527874418604645 L 2.0095345328346657 0.7527874418604645 L 1.9140700428143167 0.6573229518401158 Z" fill="#bd2949" transform="matrix(1,0,0,1,0,0)" fill-rule="nonzero"></path></g><g clip-path="url(#SvgjsClipPath100063737a03-a9a9-4f19-b837-91f01d26b5d4)"><path d=" M 1.9301966381340843 -0.37957999999999975 L 1.8689661710555958 -0.3183770522325579 L 1.9301966381340843 -0.2571741044651161 L 1.9913995859015259 -0.3183770522325579 Z" fill="#bd2949" transform="matrix(1,0,0,1,0,0)" fill-rule="nonzero"></path></g><g clip-path="url(#be6608863-0c27-405c-b6d3-0f94a0328f1a63737a03-a9a9-4f19-b837-91f01d26b5d4)"><path d=" M 2.034493423511991 -0.2972116845377903 C 2.1030725114440627 -0.2896218759973199 2.1702387486693144 -0.27239952634190717 2.2340084285992 -0.24605328530232526 C 2.2393051745671073 -0.24435380160996753 2.245019311095211 -0.247005640380963 2.247140929250289 -0.252147867434796 C 2.249262547405367 -0.25729009448862894 2.247080752955426 -0.26319969499182483 2.2421266253579213 -0.265729592700581 C 2.176527089178522 -0.2928681437029254 2.1074217438647986 -0.3106007661631031 2.0368600842619906 -0.3184015540436043 C 2.0310086633725084 -0.3190550893637283 2.0257353544542083 -0.3148413705551801 2.0250818191340842 -0.30898994966569726 C 2.0244282838139602 -0.3031385287762145 2.028642002622508 -0.29786521985791437 2.034493423511991 -0.2972116845377903" fill="#bd2949" transform="matrix(1,0,0,1,0,0)" fill-rule="nonzero"></path></g><g clip-path="url(#be6608863-0c27-405c-b6d3-0f94a0328f1a63737a03-a9a9-4f19-b837-91f01d26b5d4)"><path d=" M 1.5962483950962936 -0.2408521355145348 C 1.5976243606486193 -0.2408521355145348 1.599055364823038 -0.24112732862499991 1.600403811064317 -0.24170523415697664 C 1.6695394823640533 -0.270944549141258 1.742745683287143 -0.2894224327667488 1.8174761365992012 -0.29649618245058135 C 1.8233377498521075 -0.2970465686715115 1.8276307623753634 -0.3022477184593022 1.827080376154433 -0.30810933171220917 C 1.8268517758221385 -0.3109383651640967 1.8254889433135288 -0.3135547518686846 1.8233017538331726 -0.3153635886664201 C 1.8211145643528162 -0.3171724254641556 1.8182888921643483 -0.3180199916962501 1.8154672268928052 -0.3177135712674417 C 1.738563807974853 -0.31045094115355154 1.6632295751922321 -0.29143408234221857 1.5920929791282707 -0.2613265029331395 C 1.5874642490068653 -0.2593207971856439 1.584870761457791 -0.25434928419598635 1.585874141615024 -0.24940547732856025 C 1.5868775217722568 -0.2444616704611341 1.5912039730064795 -0.24089460741271032 1.5962483950962936 -0.2408521355145348" fill="#bd2949" transform="matrix(1,0,0,1,0,0)" fill-rule="nonzero"></path></g></g></g><defs><clipPath id="SvgjsClipPath1003"><path d=" M 1.368801289296875 -0.37957999999999975 h 1.1050200581395346 v 1.2069999999999994 h -1.1050200581395346 Z"></path></clipPath><clipPath id="ae6608863-0c27-405c-b6d3-0f94a0328f1a63737a03-a9a9-4f19-b837-91f01d26b5d4"><path d=" M 1.368801289296875 0.8274199999999996 L 2.4738117050585027 0.8274199999999996 L 2.4738117050585027 -0.37957698249999977 L 1.368801289296875 -0.37957698249999977 Z"></path></clipPath><clipPath id="SvgjsClipPath100063737a03-a9a9-4f19-b837-91f01d26b5d4"><path d=" M 1.368801289296875 -0.37957999999999975 L 2.4738213474364095 -0.37957999999999975 L 2.4738213474364095 0.8274199999999996 L 1.3688012892968753 0.8274199999999996 Z"></path></clipPath><clipPath id="be6608863-0c27-405c-b6d3-0f94a0328f1a63737a03-a9a9-4f19-b837-91f01d26b5d4"><path d=" M 1.368801289296875 0.8274199999999996 L 2.4738117050585027 0.8274199999999996 L 2.4738117050585027 -0.37957698249999977 L 1.368801289296875 -0.37957698249999977 Z"></path></clipPath></defs></svg>